PathFileType	4	(X/Y/Z)	c:/Users/goper/Files/vsCode/490R/osim_files/C17/C17_Fast_06.trc
DataRate	CameraRate	NumFrames	NumMarkers	Units                	OrigDataRate	OrigDataStartFrame	OrigNumFrames
250.00	250.00	6	36	mm	250.0	1086	2171
                Frame#	Time	LPSIS			LASIS			LTH1			LTH2			LTH3			LTH4			LLFE			LMFE			LSH1			LSH2			LSH3			LSH4			LLMAL			LMMAL			LCAL			LMTP5			LTOE			LMTP1			RPSIS			RASIS			RTH1			RTH2			RTH3			RTH4			RLFE			RMFE			RSH1			RSH2			RSH3			RSH4			RLMAL			RMMAL			RCAL			RMTP1			RTOE			RMTP5		
		X1	Y1	Z1	X2	Y2	Z2	X3	Y3	Z3	X4	Y4	Z4	X5	Y5	Z5	X6	Y6	Z6	X7	Y7	Z7	X8	Y8	Z8	X9	Y9	Z9	X10	Y10	Z10	X11	Y11	Z11	X12	Y12	Z12	X13	Y13	Z13	X14	Y14	Z14	X15	Y15	Z15	X16	Y16	Z16	X17	Y17	Z17	X18	Y18	Z18	X19	Y19	Z19	X20	Y20	Z20	X21	Y21	Z21	X22	Y22	Z22	X23	Y23	Z23	X24	Y24	Z24	X25	Y25	Z25	X26	Y26	Z26	X27	Y27	Z27	X28	Y28	Z28	X29	Y29	Z29	X30	Y30	Z30	X31	Y31	Z31	X32	Y32	Z32	X33	Y33	Z33	X34	Y34	Z34	X35	Y35	Z35	X36	Y36	Z36

1086	4.34000	-1573.25378	1095.11133	251.12622	-1760.03210	1043.39136	352.11621	-1796.35400	719.27368	405.58185	-1820.43958	683.30231	399.81290	-1846.39722	751.59351	408.70789	-1866.80591	711.89099	404.35901	-1877.70642	537.85938	381.21478	-1897.11743	539.26672	256.18341	-1805.76428	320.57138	381.34229	-1784.08020	282.50980	376.58865	-1749.67725	345.20560	377.59885	-1735.69812	304.09796	373.61514	-1699.82178	160.32634	358.87115	-1727.01404	163.21773	269.96692	-1622.99829	141.95323	303.67511	-1792.89172	71.95080	389.45724	-1860.22095	79.71718	331.50854	-1843.87781	59.66117	282.82864	-1583.68896	1094.93225	178.03421	-1770.06787	1057.56689	86.63947	-1701.72815	756.68323	41.68440	-1701.08484	711.36292	50.89309	-1760.30432	755.67780	55.75761	-1753.28113	708.43970	61.18349	-1710.77844	489.78506	97.18607	-1686.56140	514.80634	219.89784	-1611.79602	301.49210	106.83401	-1612.51709	258.27936	126.20197	-1674.38550	296.30771	117.73101	-1664.34424	251.80377	133.07903	-1594.46277	96.16200	176.28545	-1620.34497	116.14016	262.46371	-1522.13391	63.68140	222.74524	-1759.56274	49.17918	264.91949	-1771.86621	70.93839	218.57837	-1716.02527	42.12625	148.63716
1087	4.34400	-1580.11719	1094.86108	251.47243	-1769.42932	1044.11426	352.61346	-1804.99768	719.89777	405.21640	-1829.42883	684.05554	399.44138	-1854.93237	752.53748	408.05011	-1875.63550	712.97968	403.65997	-1887.39893	538.53485	380.30667	-1906.14734	540.12970	255.30197	-1821.32520	319.07864	380.89401	-1800.54736	280.42999	376.21704	-1764.38855	342.43311	377.12762	-1751.66357	300.71921	373.20175	-1719.69165	155.93712	358.71640	-1747.01990	159.02959	270.48343	-1642.89648	136.08852	303.42068	-1815.08252	69.88863	389.57614	-1882.73694	79.29118	331.57236	-1866.13708	58.97886	283.09106	-1590.26453	1094.91345	177.96294	-1776.57324	1058.76294	86.21426	-1706.08862	756.65680	41.33822	-1705.19397	711.29120	50.58189	-1764.83997	755.15808	55.55112	-1757.25452	708.02820	60.87189	-1713.16296	489.71008	97.07159	-1689.01624	515.03369	219.74135	-1613.23962	301.83261	106.76019	-1614.07776	258.76080	125.30668	-1675.70715	296.41269	117.53191	-1665.20483	251.06425	132.72006	-1594.83948	96.47575	176.22676	-1621.38245	116.22737	262.34381	-1522.35229	64.45940	222.63768	-1756.99353	47.15892	265.00311	-1771.91541	70.76840	218.29430	-1716.06946	42.07385	148.60983
1088	4.34800	-1586.81665	1094.79126	251.48537	-1776.42358	1043.97192	351.96466	-1813.72668	720.34967	405.08218	-1838.19373	684.77301	399.06259	-1863.52832	753.26831	407.45203	-1884.29138	713.87555	402.89893	-1896.93726	538.92578	379.33505	-1915.22620	540.96796	253.47804	-1836.86877	317.51566	380.43771	-1817.19690	278.30685	375.77246	-1779.60095	339.18134	376.58057	-1767.63501	297.28741	372.79977	-1739.75720	151.63007	358.52011	-1767.08887	155.22353	270.35141	-1664.36792	129.22273	303.40375	-1837.61401	67.77571	389.67239	-1904.36890	79.09738	331.64804	-1888.28687	57.99871	283.33179	-1596.95178	1094.74255	177.97366	-1782.59595	1057.97119	85.56155	-1710.41797	756.61096	41.00293	-1709.13879	711.30865	50.30380	-1769.24280	754.68317	55.18161	-1761.25012	707.60010	60.55676	-1715.50940	489.59744	96.90706	-1691.89685	515.06976	219.84869	-1614.54480	302.29468	106.59815	-1614.80054	259.07513	126.02200	-1677.06628	296.44730	117.35217	-1666.33582	251.16956	132.53406	-1595.18262	96.81132	176.11023	-1622.25024	116.78621	261.99664	-1522.55164	65.18100	222.53888	-1757.09937	47.09450	265.06506	-1772.12415	70.50738	218.28105	-1716.13782	42.03057	148.57922
1089	4.35200	-1593.55762	1094.66077	251.50839	-1783.52563	1043.63745	351.42242	-1822.25098	720.71539	404.62466	-1846.92908	685.27130	398.63449	-1872.57983	754.22314	406.97876	-1892.95520	714.69708	402.00098	-1906.30908	539.27911	378.38766	-1923.98401	541.62585	253.48770	-1852.66772	316.04559	380.14114	-1833.84412	276.22705	375.37372	-1794.23523	336.27518	375.86349	-1783.70288	293.85141	372.47311	-1759.92371	147.41364	358.31454	-1787.14246	151.50464	270.15048	-1685.14355	123.14889	303.16925	-1859.21729	66.24619	389.77261	-1926.23877	78.82106	331.81958	-1910.72327	57.05971	283.57751	-1603.56677	1094.53174	177.95212	-1788.66382	1056.99231	84.95874	-1714.80615	756.50623	40.72411	-1713.24646	711.20074	49.99467	-1773.50781	754.18658	54.72304	-1765.27771	707.19531	60.19988	-1717.93909	489.46359	96.72795	-1694.38647	515.44019	219.34181	-1615.94312	302.70255	106.51039	-1616.58008	259.74698	124.79656	-1678.49963	296.56943	117.12917	-1667.72583	252.09105	132.48120	-1595.62842	97.17410	176.01360	-1622.85229	117.35732	261.70816	-1522.78870	65.93514	222.39398	-1760.10522	48.99936	264.99985	-1772.56018	70.37904	218.42537	-1716.20312	41.98230	148.54395
1090	4.35600	-1600.27979	1094.37329	251.59839	-1790.52930	1043.26184	350.82336	-1830.80469	721.01593	404.34723	-1855.60925	685.65485	398.10236	-1881.01270	754.77863	406.22784	-1901.56445	715.29193	401.21472	-1915.60205	539.53131	377.36182	-1932.57031	542.14343	251.66605	-1867.80249	314.48602	379.49518	-1850.46472	274.14664	374.85809	-1809.24695	333.00586	375.74118	-1799.84692	290.44897	372.07251	-1780.13440	143.42517	358.10233	-1806.93018	148.00984	269.70056	-1706.33411	117.17059	302.91986	-1881.23962	64.69315	389.90228	-1948.13354	78.65450	332.03149	-1933.29968	56.40514	283.87582	-1610.00769	1094.25708	177.96957	-1794.71924	1056.11536	84.37858	-1719.20764	756.41650	40.35177	-1717.29053	711.11658	49.69244	-1777.91919	753.75055	54.25678	-1769.36255	706.76379	59.82127	-1720.58423	489.28107	96.52961	-1697.49084	515.65820	219.12651	-1617.53162	303.10416	106.35466	-1617.21753	259.95148	125.74380	-1679.92639	296.59680	116.88388	-1668.85938	251.40997	132.00098	-1596.01086	97.51480	175.91092	-1623.31702	117.68564	261.57492	-1523.04199	66.64957	222.31165	-1757.31909	46.91434	265.15811	-1772.57629	70.04474	218.29593	-1716.24353	41.92463	148.48022
1091	4.36000	-1607.04443	1094.00146	251.65225	-1797.68311	1042.90076	350.26990	-1839.25647	721.28107	403.93588	-1864.06580	685.95941	397.61533	-1889.33740	755.10193	405.52338	-1909.83447	715.71942	400.33524	-1924.63330	539.61395	376.28809	-1940.84351	542.36823	250.74051	-1883.29980	313.00592	378.92569	-1867.08374	272.17972	374.33740	-1824.08459	329.79410	375.17542	-1816.05688	287.17136	371.63214	-1800.57800	139.55345	357.81552	-1827.37500	144.62027	269.43649	-1727.31982	111.53166	302.43393	-1903.40002	63.34434	390.00174	-1970.10303	78.70076	332.27283	-1956.19165	56.12568	284.51572	-1616.59241	1093.86414	178.09474	-1800.85889	1055.23730	83.79691	-1723.67358	756.23462	40.03174	-1721.93091	710.90460	49.82593	-1782.37915	753.16608	53.85594	-1773.50256	706.27032	59.42861	-1723.34790	489.14133	96.35379	-1700.57275	515.88470	218.90974	-1618.68335	303.56647	106.16706	-1619.23572	260.61099	124.52544	-1681.49365	296.64374	116.62208	-1670.31372	252.34045	131.87662	-1596.40845	97.90699	175.81276	-1623.64258	118.08891	261.58032	-1523.27380	67.39493	222.13332	-1757.75806	47.47748	265.39981	-1772.79443	69.85355	218.21164	-1716.30530	41.85389	148.42378
